<?xml version="1.0" standalone="no"?>
<!DOCTYPE svg PUBLIC "-//W3C//DTD SVG 20010904//EN"
 "http://www.w3.org/TR/2001/REC-SVG-20010904/DTD/svg10.dtd">
<svg version="1.0" xmlns="http://www.w3.org/2000/svg"
 width="270.000000pt" height="270.000000pt" viewBox="0 0 270.000000 270.000000"
 preserveAspectRatio="xMidYMid meet">
<metadata>
Created by potrace 1.11, written by Peter Selinger 2001-2013
</metadata>
<g transform="translate(0.000000,270.000000) scale(0.100000,-0.100000)"
fill="#000000" stroke="none">
<path d="M302 2215 l-302 -486 2 -567 3 -566 475 -298 475 -297 565 0 565 -1
308 494 307 493 0 546 0 545 -112 69 c-62 39 -287 179 -500 311 l-387 242
-548 0 -548 0 -303 -485z m1235 169 c193 -34 351 -136 431 -277 38 -68 72
-177 72 -233 l0 -44 -37 0 c-21 0 -74 -3 -118 -6 l-80 -7 -18 74 c-20 89 -72
170 -135 212 -76 51 -145 70 -279 75 -195 7 -302 -20 -387 -98 -105 -97 -115
-244 -24 -342 50 -52 161 -93 433 -158 344 -82 455 -129 566 -240 98 -97 138
-195 139 -335 1 -291 -226 -516 -569 -566 -101 -14 -296 -7 -397 15 -169 36
-267 87 -371 192 -103 104 -168 245 -175 384 l-3 45 115 10 115 10 16 -67 c34
-143 105 -236 229 -298 96 -49 195 -70 324 -70 124 0 209 17 294 57 192 90
241 325 95 453 -62 55 -166 95 -398 154 -245 62 -351 94 -431 132 -185 87
-285 235 -285 419 -1 93 11 147 51 225 122 241 444 351 827 284z m-37 -1121
c0 -25 -86 -83 -133 -89 -45 -6 -137 12 -137 28 0 4 -11 19 -25 34 -21 23 -47
99 -39 115 6 11 334 -75 334 -88z"/>
</g>
</svg>
